<svg width="35" height="35" viewBox="0 0 35 35" fill="none" xmlns="http://www.w3.org/2000/svg">
<path d="M13.125 32.0833C13.9304 32.0833 14.5834 31.4304 14.5834 30.625C14.5834 29.8196 13.9304 29.1667 13.125 29.1667C12.3196 29.1667 11.6667 29.8196 11.6667 30.625C11.6667 31.4304 12.3196 32.0833 13.125 32.0833Z" stroke="black" stroke-width="2" stroke-linecap="round" stroke-linejoin="round"/>
<path d="M29.1666 32.0833C29.9721 32.0833 30.625 31.4304 30.625 30.625C30.625 29.8196 29.9721 29.1667 29.1666 29.1667C28.3612 29.1667 27.7083 29.8196 27.7083 30.625C27.7083 31.4304 28.3612 32.0833 29.1666 32.0833Z" stroke="black" stroke-width="2" stroke-linecap="round" stroke-linejoin="round"/>
<path d="M1.45831 1.45834H7.29165L11.2 20.9854C11.3333 21.6568 11.6986 22.2599 12.2318 22.6892C12.765 23.1184 13.4322 23.3465 14.1166 23.3333H28.2916C28.976 23.3465 29.6433 23.1184 30.1765 22.6892C30.7097 22.2599 31.075 21.6568 31.2083 20.9854L33.5416 8.75H8.74998" stroke="black" stroke-width="2" stroke-linecap="round" stroke-linejoin="round"/>
</svg>
